<svg width="289" height="138" viewBox="0 0 289 138" fill="none" xmlns="http://www.w3.org/2000/svg">
<path d="M284.75 72.5C284.75 79.1967 282.09 85.6192 277.354 90.3545C272.619 95.0898 266.197 97.75 259.5 97.75L201.135 97.75L200.369 98.1533L131.375 134.5L110.974 134.5L128.65 102.961L131.571 97.75L57.365 97.75L56.5867 98.1709L35.616 109.5L13.6033 109.5L32.5838 74.1562L33.3563 72.7168L32.7498 71.2002L5.91974 4.12499L27.6268 4.12499L56.3768 47.25L129.328 47.25L127.691 42.5898L118.704 17L138.662 17L198.935 46.8857L199.671 47.25L259.5 47.25C266.197 47.25 272.619 49.9102 277.354 54.6455C282.09 59.3808 284.75 65.8033 284.75 72.5Z" stroke="white" stroke-width="7"/>
</svg>
